<?xml version="1.0" encoding="iso-8859-1"?>
<!-- Generator: Adobe Illustrator 19.0.0, SVG Export Plug-In . SVG Version: 6.00 Build 0)  -->
<svg version="1.1" id="Layer_1" xmlns="http://www.w3.org/2000/svg" xmlns:xlink="http://www.w3.org/1999/xlink" x="0px" y="0px"
	 viewBox="0 0 511.998 511.998" style="enable-background:new 0 0 511.998 511.998;" xml:space="preserve">
<polygon style="fill:#B3B3B3;" points="289.284,245.393 312.822,302.213 256.002,325.751 "/>
<g>
	<path style="fill:#CCCCCC;" d="M256.002,165.035l-33.283,80.358l-14.33-34.596l-24.648-59.495
		c-19.119-46.156-16.325-98.486,7.607-142.337l50.324,121.475L256.002,165.035z"/>
	<path style="fill:#CCCCCC;" d="M320.656,8.952c23.92,43.863,26.714,96.193,7.595,142.349l-38.967,94.091l-33.283,80.358
		l-56.82-23.538l23.538-56.82l33.283-80.358L320.656,8.952z"/>
</g>
<polygon style="fill:#B3B3B3;" points="256.002,165.035 222.719,245.393 208.389,210.797 227.341,165.035 241.671,130.438 "/>
<g>
	<path style="fill:#F7B239;" d="M465.25,385.091c18.021,43.529-2.639,93.423-46.168,111.455s-93.435-2.639-111.455-46.168
		l-51.625-124.627l56.82-23.538l16.492-6.831l19.071,46.037c1.755-0.884,3.559-1.732,5.41-2.496
		C397.312,320.89,447.218,341.562,465.25,385.091z M435.551,438.078c11.237-27.12-1.648-58.217-28.768-69.455
		c-27.132-11.237-58.229,1.648-69.455,28.768c-11.237,27.12,1.636,58.217,28.768,69.455
		C393.216,478.084,424.313,465.198,435.551,438.078z"/>
	<path style="fill:#F7B239;" d="M256.002,325.751l-51.625,124.627c-18.033,43.529-67.938,64.201-111.455,46.168
		c-43.529-18.033-64.2-67.926-46.168-111.455c18.021-43.529,67.926-64.201,111.455-46.168c1.851,0.764,3.642,1.612,5.41,2.496
		l19.071-46.037l16.492,6.831L256.002,325.751z M174.676,438.078c11.237-27.12-1.648-58.217-28.768-69.455
		c-27.132-11.237-58.229,1.648-69.455,28.768c-11.237,27.12,1.636,58.217,28.768,69.455
		C132.342,478.084,163.439,465.198,174.676,438.078z"/>
</g>
<g>
	<path style="fill:#FFFFFF;" d="M203.811,389.565c-1.143,0-2.304-0.22-3.424-0.684c-4.57-1.893-6.741-7.133-4.847-11.702
		l17.037-41.126c1.893-4.57,7.134-6.739,11.702-4.847c4.57,1.893,6.741,7.133,4.847,11.702l-17.037,41.126
		C210.66,387.483,207.326,389.565,203.811,389.565z"/>
	<path style="fill:#FFFFFF;" d="M326.517,368.38c-3.515,0-6.849-2.082-8.278-5.53l-11.998-28.959
		c-1.894-4.57,0.276-9.809,4.846-11.702c4.574-1.894,9.81,0.276,11.703,4.846l11.998,28.959c1.894,4.57-0.276,9.809-4.846,11.702
		C328.821,368.161,327.66,368.38,326.517,368.38z"/>
</g>
<g>
	<path style="fill:#333333;" d="M149.332,360.347c-15.329-6.348-32.211-6.35-47.542,0c-15.329,6.35-27.267,18.288-33.616,33.617
		c-13.108,31.644,1.973,68.052,33.616,81.159c7.749,3.21,15.783,4.729,23.691,4.729c24.387,0,47.572-14.451,57.469-38.346
		c6.35-15.329,6.35-32.214,0-47.543C176.6,378.635,164.661,366.696,149.332,360.347z M166.401,434.651
		c-7.043,17.005-23.541,27.29-40.897,27.288c-5.626,0-11.346-1.082-16.859-3.365c-22.518-9.328-33.25-35.236-23.922-57.754
		c4.519-10.908,13.014-19.405,23.924-23.922c5.454-2.259,11.184-3.389,16.915-3.389s11.463,1.13,16.916,3.389
		c10.909,4.519,19.405,13.014,23.922,23.922C170.918,411.728,170.918,423.742,166.401,434.651z"/>
	<path style="fill:#333333;" d="M410.206,360.347c-15.328-6.348-32.21-6.35-47.543,0c-15.329,6.35-27.267,18.288-33.616,33.617
		c-13.108,31.644,1.973,68.052,33.616,81.159c7.749,3.21,15.783,4.729,23.691,4.729c24.387,0,47.572-14.451,57.469-38.346
		c6.35-15.329,6.35-32.214,0-47.543C437.474,378.635,425.535,366.696,410.206,360.347z M427.275,434.651
		c-4.519,10.909-13.014,19.405-23.923,23.922c-10.904,4.52-22.92,4.52-33.832,0c-22.518-9.328-33.25-35.236-23.922-57.754
		c4.519-10.908,13.014-19.405,23.923-23.922c5.454-2.259,11.184-3.389,16.915-3.389c5.731,0,11.463,1.13,16.916,3.389
		c10.909,4.519,19.405,13.014,23.923,23.922C431.792,411.728,431.792,423.742,427.275,434.651z"/>
	<path style="fill:#333333;" d="M473.523,381.662c-19.506-47.091-73.017-70.012-120.365-52.121l-15.571-37.59
		c-1.893-4.57-7.131-6.74-11.702-4.847l-8.221,3.406l-18.687-45.115l37.553-90.662c20.256-48.904,17.334-103.6-8.017-150.065
		c-1.654-3.029-4.887-4.851-8.34-4.654c-3.444,0.184-6.477,2.33-7.796,5.516l-56.377,136.108L199.621,5.532
		c-1.318-3.186-4.353-5.332-7.796-5.516c-3.446-0.198-6.689,1.625-8.34,4.653c-25.352,46.459-28.274,101.155-8.017,150.061
		l37.554,90.663l-18.688,45.117l-8.222-3.406c-2.195-0.909-4.66-0.909-6.855,0c-2.195,0.909-3.938,2.652-4.847,4.847l-15.57,37.59
		c-47.354-17.892-100.86,5.03-120.365,52.121c-9.636,23.262-9.636,48.884-0.001,72.146c9.636,23.262,27.753,41.379,51.015,51.014
		c11.759,4.871,23.95,7.176,35.95,7.176c37.006,0,72.19-21.929,87.209-58.191l43.351-104.658l43.351,104.658
		c15.021,36.264,50.2,58.191,87.209,58.191c11.997,0,24.195-2.307,35.95-7.176c23.262-9.635,41.378-27.752,51.015-51.014
		C483.159,430.546,483.159,404.924,473.523,381.662z M301.114,297.364l-28.567,11.833l16.734-40.4L301.114,297.364z
		 M192.016,147.874c-15.63-37.736-15.878-79.312-1.172-116.725l55.46,133.892l-23.588,56.948L192.016,147.874z M321.153,31.149
		c14.704,37.418,14.456,78.995-1.172,116.729l-68.829,166.166l-23.274-9.64l-16.996-7.04L321.153,31.149z M196.099,446.953
		c-7.804,18.841-22.479,33.515-41.321,41.32c-18.84,7.804-39.593,7.805-58.436,0c-18.841-7.804-33.515-22.479-41.321-41.32
		c-7.805-18.841-7.804-39.594,0-58.436c12.167-29.373,40.661-47.132,70.637-47.132c9.718,0,19.596,1.868,29.117,5.812
		c1.457,0.603,2.997,1.314,4.851,2.236c2.222,1.105,4.804,1.238,7.129,0.369c2.325-0.871,4.184-2.667,5.134-4.961l15.641-37.758
		l32.736,13.559l24.03,9.954L196.099,446.953z M456.973,446.953c-7.804,18.841-22.479,33.515-41.321,41.32
		c-18.841,7.805-39.594,7.805-58.436,0c-18.841-7.804-33.515-22.479-41.321-41.32l-48.197-116.359l48.543-20.107
		c0.001,0,0.002-0.001,0.004-0.001l8.216-3.404l15.642,37.758c0.949,2.294,2.81,4.09,5.135,4.961
		c2.324,0.871,4.907,0.737,7.131-0.37c1.844-0.918,3.384-1.628,4.847-2.233c38.895-16.11,83.645,2.425,99.756,41.32
		C464.778,407.359,464.778,428.112,456.973,446.953z"/>
	<circle style="fill:#333333;" cx="256.729" cy="247.152" r="8.957"/>
</g>
<g>
</g>
<g>
</g>
<g>
</g>
<g>
</g>
<g>
</g>
<g>
</g>
<g>
</g>
<g>
</g>
<g>
</g>
<g>
</g>
<g>
</g>
<g>
</g>
<g>
</g>
<g>
</g>
<g>
</g>
</svg>
